<svg width="56" height="56" viewBox="0 0 56 56" fill="none" xmlns="http://www.w3.org/2000/svg">
<path d="M25 12.6278C25 10.7757 25.1833 9.82673 25.7115 8.83891C26.2 7.92566 26.9257 7.19996 27.8389 6.71154C28.8267 6.18325 29.7757 6 31.6278 6H44.3722C46.2243 6 47.1733 6.18325 48.1611 6.71154C49.0743 7.19996 49.8 7.92566 50.2885 8.83891C50.8167 9.82673 51 10.7757 51 12.6278V43.3722C51 45.2243 50.8167 46.1733 50.2885 47.1611C49.8 48.0743 49.0743 48.8 48.1611 49.2885C47.1733 49.8167 46.2243 50 44.3722 50H31.6278C29.7757 50 28.8267 49.8167 27.8389 49.2885C26.9257 48.8 26.2 48.0743 25.7115 47.1611C25.1833 46.1733 25 45.2243 25 43.3722L25 12.6278ZM28 12.6278L28 43.3722C28 44.7714 28.0929 45.2525 28.357 45.7463C28.5658 46.1367 28.8633 46.4342 29.2537 46.643C29.7475 46.9071 30.2286 47 31.6278 47H44.3722C45.7714 47 46.2525 46.9071 46.7463 46.643C47.1367 46.4342 47.4342 46.1367 47.643 45.7463C47.9071 45.2525 48 44.7714 48 43.3722V12.6278C48 11.2286 47.9071 10.7475 47.643 10.2537C47.4342 9.86326 47.1367 9.5658 46.7463 9.35699C46.2525 9.0929 45.7714 9 44.3722 9H31.6278C30.2286 9 29.7475 9.0929 29.2537 9.35699C28.8633 9.5658 28.5658 9.86326 28.357 10.2537C28.0929 10.7475 28 11.2286 28 12.6278ZM5 30.6278C5 28.7757 5.18325 27.8267 5.71155 26.8389C6.19996 25.9257 6.92566 25.2 7.83891 24.7115C8.82673 24.1833 9.77569 24 11.6278 24H20.5C21.3284 24 22 24.6716 22 25.5C22 26.3284 21.3284 27 20.5 27H11.6278C10.2286 27 9.7475 27.0929 9.25371 27.357C8.86326 27.5658 8.5658 27.8633 8.35699 28.2537C8.0929 28.7475 8 29.2286 8 30.6278L8 44.5C8 45.8807 9.11929 47 10.5 47H20.5C21.3284 47 22 47.6716 22 48.5C22 49.3284 21.3284 50 20.5 50H10.5C7.46243 50 5 47.5376 5 44.5L5 30.6278ZM9 16.5C9 13.4624 11.4624 11 14.5 11H17.238L16.3611 9.97619C15.8557 9.38651 15.8881 8.51738 16.4124 7.9668L16.5238 7.86111C17.1528 7.32198 18.0998 7.39482 18.6389 8.02381L21.6389 11.5238C22.1204 12.0855 22.1204 12.9145 21.6389 13.4762L18.6389 16.9762C18.0998 17.6052 17.1528 17.678 16.5238 17.1389C15.8948 16.5998 15.822 15.6528 16.3611 15.0238L17.239 14H14.5C13.1745 14 12.09 15.0315 12.0053 16.3356L12 16.5V19.5C12 20.3284 11.3284 21 10.5 21C9.67157 21 9 20.3284 9 19.5V16.5Z" fill="#3F8AE0"/>
</svg>
